# This file uses centimeters as units for non-parametric coordinates.

mtllib Lowpoly_Sphere.mtl
g default
v 2.344892 -6.454932 -4.061471
v -2.344891 -6.454932 -4.061471
v -4.689783 -6.454932 -0.000001
v -2.344892 -6.454932 4.061471
v 2.344891 -6.454932 4.061471
v 4.689783 -6.454932 0.000000
v 3.794116 -2.465565 -6.571597
v -3.794113 -2.465565 -6.571599
v -7.588228 -2.465565 -0.000001
v -3.794115 -2.465565 6.571598
v 3.794114 -2.465565 6.571598
v 7.588228 -2.465565 0.000000
v 3.794116 2.465565 -6.571597
v -3.794113 2.465565 -6.571599
v -7.588228 2.465565 -0.000001
v -3.794115 2.465565 6.571598
v 3.794114 2.465565 6.571598
v 7.588228 2.465565 0.000000
v 2.344892 6.454932 -4.061471
v -2.344891 6.454932 -4.061471
v -4.689783 6.454932 -0.000001
v -2.344892 6.454932 4.061471
v 2.344891 6.454932 4.061471
v 4.689783 6.454932 0.000000
v 0.000000 -7.978735 0.000000
v 0.000000 7.978735 0.000000
vt 0.366064 0.614663
vt 0.258370 0.614661
vt 0.209081 0.529288
vt 0.415356 0.529292
vt 0.204521 0.707927
vt 0.105940 0.707925
vt 0.258365 0.801194
vt 0.209074 0.886567
vt 0.366060 0.801196
vt 0.415349 0.886570
vt 0.419911 0.707931
vt 0.518491 0.707933
vt 0.160476 0.445100
vt 0.463963 0.445105
vt 0.008730 0.707923
vt 0.160467 0.970753
vt 0.463954 0.970758
vt 0.615702 0.707935
vt 0.552719 0.054697
vt 0.813870 0.054691
vt 0.747170 0.170225
vt 0.619424 0.170228
vt 0.944451 0.280851
vt 0.811045 0.280853
vt 0.813880 0.507017
vt 0.747175 0.391484
vt 0.552730 0.507023
vt 0.619429 0.391487
vt 0.422148 0.280862
vt 0.555554 0.280859
vt 0.312216 0.707929
vt 0.683300 0.280856
vn 0.000000 -0.532556 -0.846395
vn 0.000000 -0.532556 -0.846395
vn 0.000000 -0.532556 -0.846395
vn 0.000000 -0.532556 -0.846395
vn -0.732999 -0.532556 -0.423198
vn -0.732999 -0.532556 -0.423198
vn -0.732999 -0.532556 -0.423198
vn -0.732999 -0.532556 -0.423198
vn -0.733000 -0.532555 0.423197
vn -0.733000 -0.532555 0.423197
vn -0.733000 -0.532555 0.423197
vn -0.733000 -0.532555 0.423197
vn 0.000000 -0.532556 0.846395
vn 0.000000 -0.532556 0.846395
vn 0.000000 -0.532556 0.846395
vn 0.000000 -0.532556 0.846395
vn 0.733000 -0.532555 0.423198
vn 0.733000 -0.532555 0.423198
vn 0.733000 -0.532555 0.423198
vn 0.733000 -0.532555 0.423198
vn 0.733000 -0.532556 -0.423197
vn 0.733000 -0.532556 -0.423197
vn 0.733000 -0.532556 -0.423197
vn 0.733000 -0.532556 -0.423197
vn 0.000000 0.000000 -1.000000
vn 0.000000 0.000000 -1.000000
vn 0.000000 0.000000 -1.000000
vn 0.000000 0.000000 -1.000000
vn -0.866025 0.000000 -0.500000
vn -0.866025 0.000000 -0.500000
vn -0.866025 0.000000 -0.500000
vn -0.866025 0.000000 -0.500000
vn -0.866026 0.000000 0.500000
vn -0.866026 0.000000 0.500000
vn -0.866026 0.000000 0.500000
vn -0.866026 0.000000 0.500000
vn 0.000000 0.000000 1.000000
vn 0.000000 0.000000 1.000000
vn 0.000000 0.000000 1.000000
vn 0.000000 0.000000 1.000000
vn 0.866025 0.000000 0.500000
vn 0.866025 0.000000 0.500000
vn 0.866025 0.000000 0.500000
vn 0.866025 0.000000 0.500000
vn 0.866026 0.000000 -0.500000
vn 0.866026 0.000000 -0.500000
vn 0.866026 0.000000 -0.500000
vn 0.866026 0.000000 -0.500000
vn 0.000000 0.532556 -0.846395
vn 0.000000 0.532556 -0.846395
vn 0.000000 0.532556 -0.846395
vn 0.000000 0.532556 -0.846395
vn -0.732999 0.532556 -0.423198
vn -0.732999 0.532556 -0.423198
vn -0.732999 0.532556 -0.423198
vn -0.732999 0.532556 -0.423198
vn -0.733000 0.532555 0.423197
vn -0.733000 0.532555 0.423197
vn -0.733000 0.532555 0.423197
vn -0.733000 0.532555 0.423197
vn 0.000000 0.532556 0.846395
vn 0.000000 0.532556 0.846395
vn 0.000000 0.532556 0.846395
vn 0.000000 0.532556 0.846395
vn 0.733000 0.532555 0.423198
vn 0.733000 0.532555 0.423198
vn 0.733000 0.532555 0.423198
vn 0.733000 0.532555 0.423198
vn 0.733000 0.532556 -0.423197
vn 0.733000 0.532556 -0.423197
vn 0.733000 0.532556 -0.423197
vn 0.733000 0.532556 -0.423197
vn 0.000000 -0.936272 -0.351276
vn 0.000000 -0.936272 -0.351276
vn 0.000000 -0.936272 -0.351276
vn -0.304213 -0.936272 -0.175638
vn -0.304213 -0.936272 -0.175638
vn -0.304213 -0.936272 -0.175638
vn -0.304213 -0.936272 0.175638
vn -0.304213 -0.936272 0.175638
vn -0.304213 -0.936272 0.175638
vn 0.000000 -0.936272 0.351276
vn 0.000000 -0.936272 0.351276
vn 0.000000 -0.936272 0.351276
vn 0.304213 -0.936272 0.175638
vn 0.304213 -0.936272 0.175638
vn 0.304213 -0.936272 0.175638
vn 0.304213 -0.936272 -0.175638
vn 0.304213 -0.936272 -0.175638
vn 0.304213 -0.936272 -0.175638
vn 0.000000 0.936272 -0.351276
vn 0.000000 0.936272 -0.351276
vn 0.000000 0.936272 -0.351276
vn -0.304213 0.936272 -0.175638
vn -0.304213 0.936272 -0.175638
vn -0.304213 0.936272 -0.175638
vn -0.304213 0.936272 0.175638
vn -0.304213 0.936272 0.175638
vn -0.304213 0.936272 0.175638
vn 0.000000 0.936272 0.351276
vn 0.000000 0.936272 0.351276
vn 0.000000 0.936272 0.351276
vn 0.304213 0.936272 0.175638
vn 0.304213 0.936272 0.175638
vn 0.304213 0.936272 0.175638
vn 0.304213 0.936272 -0.175638
vn 0.304213 0.936272 -0.175638
vn 0.304213 0.936272 -0.175638
s 1
g Lowpoly_Sphere:pSphere1
usemtl Lowpoly_Sphere:initialShadingGroup
f 1/1/1 2/2/2 7/4/3
f 7/4/3 2/2/2 8/3/4
s 2
f 2/2/5 3/5/6 8/3/7
f 8/3/7 3/5/6 9/6/8
s 3
f 3/5/9 4/7/10 9/6/11
f 9/6/11 4/7/10 10/8/12
s 4
f 4/7/13 5/9/14 10/8/15
f 10/8/15 5/9/14 11/10/16
s 5
f 5/9/17 6/11/18 11/10/19
f 11/10/19 6/11/18 12/12/20
s 6
f 6/11/21 1/1/22 12/12/23
f 12/12/23 1/1/22 7/4/24
s 7
f 7/4/25 8/3/26 13/14/27
f 13/14/27 8/3/26 14/13/28
s 8
f 8/3/29 9/6/30 14/13/31
f 14/13/31 9/6/30 15/15/32
s 9
f 9/6/33 10/8/34 15/15/35
f 15/15/35 10/8/34 16/16/36
s 10
f 10/8/37 11/10/38 16/16/39
f 16/16/39 11/10/38 17/17/40
s 11
f 11/10/41 12/12/42 17/17/43
f 17/17/43 12/12/42 18/18/44
s 12
f 12/12/45 7/4/46 18/18/47
f 18/18/47 7/4/46 13/14/48
s 13
f 13/19/49 14/20/50 19/22/51
f 19/22/51 14/20/50 20/21/52
s 14
f 14/20/53 15/23/54 20/21/55
f 20/21/55 15/23/54 21/24/56
s 15
f 15/23/57 16/25/58 21/24/59
f 21/24/59 16/25/58 22/26/60
s 16
f 16/25/61 17/27/62 22/26/63
f 22/26/63 17/27/62 23/28/64
s 17
f 17/27/65 18/29/66 23/28/67
f 23/28/67 18/29/66 24/30/68
s 18
f 18/29/69 13/19/70 24/30/71
f 24/30/71 13/19/70 19/22/72
s off
f 2/2/73 1/1/74 25/31/75
f 3/5/76 2/2/77 25/31/78
f 4/7/79 3/5/80 25/31/81
f 5/9/82 4/7/83 25/31/84
f 6/11/85 5/9/86 25/31/87
f 1/1/88 6/11/89 25/31/90
f 19/22/91 20/21/92 26/32/93
f 20/21/94 21/24/95 26/32/96
f 21/24/97 22/26/98 26/32/99
f 22/26/100 23/28/101 26/32/102
f 23/28/103 24/30/104 26/32/105
f 24/30/106 19/22/107 26/32/108
